<svg width="18" height="18" viewBox="0 0 18 18" fill="none" xmlns="http://www.w3.org/2000/svg">
<path d="M10.553 0C10.6891 4.28891e-06 10.8217 0.0432049 10.9317 0.12338C11.0416 0.203556 11.1233 0.316569 11.165 0.446143L11.8721 2.64343C12.1691 2.78871 12.4533 2.952 12.7246 3.13586L14.9823 2.64986C15.1154 2.62144 15.2541 2.636 15.3784 2.69146C15.5027 2.74691 15.6062 2.84039 15.674 2.95843L17.456 6.04286C17.524 6.16083 17.5529 6.29736 17.5383 6.43277C17.5237 6.56818 17.4666 6.69547 17.375 6.79629L15.8257 8.50629C15.8483 8.83418 15.8483 9.16324 15.8257 9.49114L17.375 11.2037C17.4666 11.3045 17.5237 11.4318 17.5383 11.5672C17.5529 11.7026 17.524 11.8392 17.456 11.9571L15.674 15.0429C15.606 15.1607 15.5024 15.2539 15.3782 15.3091C15.2539 15.3643 15.1153 15.3787 14.9823 15.3501L12.7246 14.8641C12.4546 15.0467 12.1691 15.2113 11.8734 15.3566L11.165 17.5539C11.1233 17.6834 11.0416 17.7964 10.9317 17.8766C10.8217 17.9568 10.6891 18 10.553 18H6.98899C6.85289 18 6.7203 17.9568 6.61032 17.8766C6.50034 17.7964 6.41864 17.6834 6.377 17.5539L5.67114 15.3579C5.37493 15.213 5.08924 15.0476 4.81614 14.8629L2.55971 15.3501C2.42659 15.3786 2.28789 15.364 2.16358 15.3085C2.03927 15.2531 1.93578 15.1596 1.868 15.0416L0.0859958 11.9571C0.0179488 11.8392 -0.0108739 11.7026 0.00368388 11.5672C0.0182416 11.4318 0.0754275 11.3045 0.166996 11.2037L1.71628 9.49114C1.69384 9.1641 1.69384 8.8359 1.71628 8.50886L0.166996 6.79629C0.0754275 6.69547 0.0182416 6.56818 0.00368388 6.43277C-0.0108739 6.29736 0.0179488 6.16083 0.0859958 6.04286L1.868 2.95714C1.93596 2.83934 2.03954 2.74612 2.16384 2.69091C2.28813 2.63569 2.42673 2.62132 2.55971 2.64986L4.81614 3.13714C5.08871 2.95329 5.37414 2.78743 5.67114 2.64214L6.37828 0.446143C6.41979 0.316986 6.5011 0.204272 6.61057 0.124136C6.72003 0.043999 6.85205 0.000547287 6.98771 0H10.5517H10.553ZM10.0824 1.28571H7.45957L6.72928 3.55757L6.23685 3.798C5.99477 3.91646 5.76109 4.05135 5.53742 4.20171L5.08228 4.51029L2.74742 4.00629L1.436 6.27943L3.03671 8.05114L2.99814 8.59629C2.97966 8.86511 2.97966 9.13489 2.99814 9.40371L3.03671 9.94886L1.43342 11.7206L2.74614 13.9937L5.081 13.491L5.53614 13.7983C5.7598 13.9487 5.99349 14.0835 6.23557 14.202L6.72799 14.4424L7.45957 16.7143H10.085L10.8179 14.4411L11.309 14.202C11.5508 14.0838 11.7841 13.9489 12.0071 13.7983L12.461 13.491L14.7971 13.9937L16.1086 11.7206L14.5066 9.94886L14.5451 9.40371C14.5637 9.13446 14.5637 8.86425 14.5451 8.595L14.5066 8.04986L16.1099 6.27943L14.7971 4.00629L12.461 4.50771L12.0071 4.20171C11.7841 4.05105 11.5508 3.91615 11.309 3.798L10.8179 3.55886L10.0837 1.28571H10.0824ZM8.771 5.14286C9.79397 5.14286 10.7751 5.54923 11.4984 6.27259C12.2218 6.99594 12.6281 7.97702 12.6281 9C12.6281 10.023 12.2218 11.0041 11.4984 11.7274C10.7751 12.4508 9.79397 12.8571 8.771 12.8571C7.74802 12.8571 6.76694 12.4508 6.04358 11.7274C5.32023 11.0041 4.91385 10.023 4.91385 9C4.91385 7.97702 5.32023 6.99594 6.04358 6.27259C6.76694 5.54923 7.74802 5.14286 8.771 5.14286ZM8.771 6.42857C8.08901 6.42857 7.43496 6.69949 6.95272 7.18173C6.47048 7.66396 6.19957 8.31801 6.19957 9C6.19957 9.68198 6.47048 10.336 6.95272 10.8183C7.43496 11.3005 8.08901 11.5714 8.771 11.5714C9.45298 11.5714 10.107 11.3005 10.5893 10.8183C11.0715 10.336 11.3424 9.68198 11.3424 9C11.3424 8.31801 11.0715 7.66396 10.5893 7.18173C10.107 6.69949 9.45298 6.42857 8.771 6.42857Z" fill="white"/>
</svg>
