<svg width="25" height="18" viewBox="0 0 25 18" fill="none" xmlns="http://www.w3.org/2000/svg">
<path d="M20.25 4.5L15.75 9H19.125C19.125 12.7238 16.0987 15.75 12.375 15.75C11.2388 15.75 10.1587 15.4687 9.225 14.9625L7.5825 16.605C8.96625 17.4825 10.6088 18 12.375 18C17.3475 18 21.375 13.9725 21.375 9H24.75L20.25 4.5ZM5.625 9C5.625 5.27625 8.65125 2.25 12.375 2.25C13.5112 2.25 14.5913 2.53125 15.525 3.0375L17.1675 1.395C15.7838 0.5175 14.1412 0 12.375 0C7.4025 0 3.375 4.0275 3.375 9H0L4.5 13.5L9 9H5.625Z" fill="white"/>
</svg>
